<svg width="143" height="212" viewBox="0 0 143 212" fill="none" xmlns="http://www.w3.org/2000/svg">
<path d="M52.9009 0L52.2002 0.452244L51.8255 0.706874C51.6672 0.804245 51.5145 0.910833 51.3684 1.0261C51.0461 1.27313 50.6713 1.53915 50.2629 1.85838C49.2739 2.66485 48.347 3.54656 47.49 4.49584C46.3581 5.76165 45.3538 7.13918 44.4923 8.60784C42.2631 12.5435 40.9052 16.9241 40.5129 21.4455C40.4829 21.7685 40.4567 22.0953 40.4267 22.4222C40.3967 22.749 40.3967 23.0834 40.3743 23.4179C40.3293 24.0829 40.3368 24.7632 40.3255 25.4473C40.3338 26.8545 40.4189 28.2603 40.5804 29.6581C40.7433 31.1173 40.986 32.5662 41.3073 33.9981C41.6343 35.4815 42.0574 36.9415 42.5738 38.3685C43.0937 39.8325 43.707 41.2607 44.4099 42.6439C44.8146 43.3736 45.2218 44.1108 45.6315 44.8557L45.9612 45.4524C46.0699 45.6348 46.1786 45.7906 46.2872 45.9616L46.9392 46.9649C47.1641 47.3031 47.3589 47.6376 47.6062 47.9834L48.3557 49.0247L49.1051 50.0774C49.3636 50.427 49.6446 50.7653 49.9107 51.1073C50.4578 51.7914 50.9786 52.4945 51.5819 53.1595L52.4587 54.1704L52.9009 54.6797L53.3693 55.1737C53.9988 55.8312 54.6058 56.5076 55.2428 57.1575C55.8798 57.8074 56.5506 58.4724 57.2288 59.1223L59.316 61.0605L61.4931 62.9607C64.4633 65.479 67.6084 67.9898 70.9284 70.493C74.2483 72.9936 77.6994 75.5209 81.218 78.1887L83.8896 80.2523L86.5576 82.3653C87.4494 83.0836 88.3263 83.8285 89.2181 84.5619L91.8411 86.8422L94.4641 89.225C95.3184 90.0573 96.184 90.8857 97.0383 91.7294C97.8927 92.5731 98.7283 93.4586 99.5564 94.3555L100.785 95.7274C101.19 96.191 101.61 96.6357 101.996 97.1259C105.307 100.997 108.173 105.238 110.539 109.766L111.427 111.514L112.214 113.323L112.589 114.235C112.713 114.539 112.851 114.836 112.964 115.155L113.616 117.032L113.938 117.975L114.017 118.21L114.054 118.324C114.024 118.218 114.144 118.613 114.14 118.606L114.256 119.016L114.485 119.837L114.594 120.247L114.721 120.779L114.968 121.855L115.088 122.391C115.129 122.569 115.152 122.725 115.186 122.896C115.302 123.561 115.433 124.226 115.523 124.895C115.905 127.537 116.058 130.207 115.98 132.876C115.894 135.502 115.596 138.117 115.088 140.693C113.125 150.642 108.066 159.69 100.654 166.505C98.8949 168.105 97.0045 169.551 95.0037 170.826C94.0219 171.457 93.0102 172.035 92.006 172.578L90.3722 173.399L88.9632 174C86.8747 174.876 84.7127 175.561 82.5032 176.044C81.439 176.295 80.3711 176.462 79.3144 176.622L77.7294 176.804C77.201 176.854 76.6764 176.888 76.1556 176.926C74.1054 177.046 72.0495 177.02 70.0028 176.85C68.0388 176.67 66.0885 176.359 64.1648 175.919C60.5464 175.076 57.0564 173.743 53.789 171.955L52.6311 171.301L51.507 170.602C51.3271 170.484 51.1323 170.374 50.9599 170.253L50.4278 169.873C50.0793 169.622 49.7234 169.39 49.3861 169.131C48.7116 168.607 48.0409 168.105 47.4226 167.547C46.8043 166.988 46.201 166.441 45.6165 165.882C43.4403 163.74 41.5687 161.301 40.0558 158.635C39.8759 158.323 39.7222 158 39.5574 157.689L39.3138 157.221L39.1976 156.989L39.1677 156.932C39.1526 156.906 39.1388 156.88 39.1265 156.852L39.074 156.738C38.8042 156.119 38.5194 155.549 38.2796 154.899C38.156 154.584 38.0361 154.272 37.9049 153.964C37.7738 153.656 37.6988 153.349 37.5939 153.044C37.3803 152.44 37.2192 151.832 37.0506 151.239C36.4646 149.073 36.1017 146.85 35.9676 144.608C35.7829 141.487 36.0967 138.357 36.8969 135.339C37.1083 134.552 37.3584 133.777 37.6463 133.017C37.8374 132.5 37.9386 132.234 37.9386 132.234L37.695 133.032C37.5227 133.556 37.3204 134.351 37.103 135.392C36.5364 138.399 36.4567 141.48 36.8669 144.513C37.1535 146.657 37.6764 148.761 38.4258 150.787C38.6356 151.334 38.8342 151.901 39.089 152.452C39.2126 152.729 39.3325 153.01 39.4637 153.295L39.8722 154.12C40.127 154.667 40.4829 155.26 40.8014 155.834L40.8614 155.944L40.8801 155.978L40.9138 156.028L41.045 156.233L41.3073 156.651C41.4871 156.925 41.6558 157.21 41.8469 157.483C43.4491 159.809 45.3637 161.897 47.5351 163.686C48.1196 164.142 48.6966 164.613 49.3261 165.035C49.9556 165.457 50.5889 165.878 51.2372 166.293C51.5632 166.498 51.9116 166.673 52.2451 166.87L52.7548 167.159C52.9272 167.254 53.107 167.338 53.2831 167.425L54.3436 167.953L55.4377 168.44C58.4974 169.738 61.7191 170.603 65.0116 171.009C66.7263 171.215 68.4524 171.306 70.1789 171.282C71.9386 171.233 73.6922 171.05 75.4249 170.735C78.9241 170.104 82.2804 168.83 85.3285 166.977L86.6213 166.148C86.7337 166.084 86.5577 166.175 86.5989 166.148L86.67 166.099L86.8049 165.996L87.0822 165.795L87.6293 165.388C88.3488 164.826 89.0607 164.248 89.7277 163.625C91.0793 162.37 92.3228 161.001 93.4448 159.532C94.581 158.049 95.5949 156.474 96.4763 154.823C97.3577 153.154 98.1191 151.423 98.7545 149.643C100.025 146.069 100.821 142.34 101.123 138.554C101.436 134.819 101.245 131.059 100.557 127.377C100.478 126.921 100.362 126.476 100.272 126.028C100.25 125.918 100.227 125.792 100.201 125.697L100.126 125.404L99.9761 124.823L99.9049 124.527L99.785 124.116L99.5451 123.299L99.4253 122.889C99.4253 122.816 99.5002 123.143 99.444 122.965L99.414 122.881L99.354 122.714L99.1143 122.045C98.9531 121.6 98.8032 121.152 98.6496 120.703C98.496 120.255 98.2749 119.822 98.1063 119.377L97.5666 118.051L96.9296 116.747C95.17 113.175 93.0342 109.806 90.5595 106.699C90.2635 106.289 89.9188 105.901 89.5966 105.506L88.6148 104.32C87.9515 103.533 87.2471 102.766 86.5689 101.987L84.4218 99.7064L82.196 97.468L79.9065 95.2751L77.5608 93.1165L75.1813 90.9845L72.7794 88.8867L67.8632 84.6645C66.2145 83.2546 64.592 81.8257 62.9695 80.3929C59.7394 77.5161 56.5506 74.6088 53.5791 71.5267L51.3796 69.2008L49.2587 66.8256C48.5692 66.0237 47.8985 65.2029 47.2278 64.401C46.8868 64.0209 46.5757 63.5725 46.2572 63.1583L45.3092 61.9079L44.8408 61.2885L44.3912 60.6462L43.5069 59.3655C42.9036 58.5332 42.3827 57.6401 41.8244 56.7775C41.5583 56.3442 41.2811 55.9186 41.0225 55.4777L40.2731 54.1476L39.5424 52.8251C39.3026 52.3842 39.0815 51.8902 38.8566 51.4303C38.6318 50.9705 38.4108 50.4954 38.1897 50.0318C38.081 49.8 37.9649 49.5644 37.8674 49.3439L37.6126 48.7093C37.2554 47.82 36.9019 46.9332 36.5522 46.049C35.8826 44.2314 35.349 42.3652 34.9559 40.4663C33.5461 33.8456 33.6976 26.9808 35.3981 20.4308C36.9194 14.6732 39.5462 10.0938 42.3153 6.96987C43.5314 5.57813 44.8962 4.32774 46.3847 3.24171C47.4661 2.44951 48.6132 1.75397 49.8132 1.16291C50.3041 0.931089 50.7463 0.744875 51.121 0.585259C51.2905 0.506517 51.4644 0.437988 51.6419 0.380037L52.0803 0.228024L52.9009 0Z" fill="url(#paint0_linear_1397_26)"/>
<path d="M79.4793 137.095L79.6926 135.78C79.8953 134.505 80.0225 133.22 80.0735 131.931C80.0735 131.507 80.0735 131.057 80.0963 130.585C80.0963 130.349 80.0963 130.109 80.0963 129.858C80.0963 129.607 80.0696 129.36 80.0544 129.109C80.0239 128.591 79.9935 128.048 79.963 127.482C79.9325 126.916 79.8221 126.335 79.7497 125.724C79.3633 122.949 78.6593 120.226 77.6512 117.606C76.4089 114.373 74.7033 111.332 72.5859 108.574C72.2927 108.199 72.0184 107.824 71.7023 107.449L70.7349 106.359L70.2474 105.804L69.7143 105.283L68.6364 104.223C68.2556 103.881 67.8747 103.559 67.4748 103.222L66.8807 102.716L66.7322 102.592L66.5913 102.484L66.2675 102.244L64.9878 101.243C64.546 100.921 64.1004 100.647 63.651 100.343C63.4263 100.194 63.2017 100.044 62.9732 99.8975C62.7447 99.7513 62.5009 99.6164 62.2647 99.4777C61.7849 99.2041 61.3088 98.908 60.8175 98.6457L59.2941 97.8961C59.0465 97.7612 58.7837 97.6525 58.5324 97.54L57.744 97.199C55.5789 96.2837 53.3184 95.6051 51.0029 95.1751C46.0528 94.2781 40.9507 94.6656 36.1992 96.2995C31.0712 98.0883 26.426 101.006 22.6179 104.83C20.5938 106.823 18.7676 109.001 17.1641 111.336C16.7489 111.921 16.3757 112.543 15.9796 113.146C15.5835 113.75 15.2179 114.394 14.8637 115.02C14.5096 115.646 14.1782 116.309 13.8278 116.954L13.7631 117.074C13.7136 117.172 13.763 117.074 13.7326 117.142L13.6069 117.404L13.3555 117.929L12.8528 118.989C10.4013 124.482 8.92506 130.347 8.48826 136.331C8.05274 142.533 8.69675 148.763 10.3925 154.752C12.1206 160.845 14.9007 166.601 18.6113 171.767C20.4653 174.344 22.5519 176.751 24.8459 178.959C25.4134 179.514 26.0189 180.031 26.6016 180.571C26.8987 180.837 27.2148 181.084 27.5157 181.339L27.9765 181.714L28.205 181.905L28.3193 181.999L30.4597 183.64C30.5473 183.708 30.6387 183.783 30.7225 183.843L30.9586 184.004L31.4309 184.323L32.3678 184.963C32.5277 185.068 32.6724 185.177 32.84 185.286L33.3542 185.604L34.3825 186.245C35.0566 186.687 35.7764 187.058 36.4772 187.46C36.8314 187.651 37.1741 187.864 37.5397 188.044L38.6252 188.588L39.7068 189.131L40.8189 189.63C43.7728 190.967 46.829 192.073 49.9594 192.939C56.2628 194.663 62.7939 195.443 69.3334 195.255C75.8318 195.065 82.2786 194.058 88.517 192.257C94.6927 190.508 100.595 187.933 106.059 184.604L107.068 183.974L107.32 183.817L107.445 183.738C107.301 183.847 107.514 183.693 107.445 183.738L108.001 183.363L109.106 182.613L109.959 181.988L110.386 181.677L110.839 181.302L111.745 180.586L112.621 179.836C112.918 179.585 113.212 179.338 113.49 179.087L114.343 178.307C114.624 178.045 114.891 177.767 115.165 177.498C115.725 176.969 116.239 176.392 116.773 175.837C117.805 174.694 118.814 173.525 119.735 172.296C120.657 171.066 121.541 169.799 122.379 168.506C122.76 167.847 123.197 167.202 123.567 166.528L124.134 165.523L124.668 164.5C126.079 161.775 127.257 158.939 128.191 156.022C129.125 153.128 129.827 150.165 130.289 147.162C130.756 144.195 130.981 141.196 130.963 138.193C130.963 137.819 130.963 137.444 130.963 137.069C130.963 136.694 130.936 136.32 130.921 135.945C130.921 135.195 130.834 134.468 130.788 133.73V133.452C130.769 133.306 130.788 133.497 130.788 133.422V133.272L130.723 132.669L130.586 131.47L130.552 131.174L130.514 130.919L130.438 130.409L130.289 129.39C129.809 126.548 129.095 123.749 128.156 121.021C126.289 115.659 123.729 110.557 120.539 105.838C117.491 101.31 114.041 97.0567 110.229 93.1288C106.677 89.4464 102.898 85.9818 98.9143 82.7546C97.01 81.2067 95.1058 79.7563 93.232 78.3583C92.3141 77.6912 91.3276 77.0053 90.406 76.3382L87.6258 74.3368C80.3363 69.0448 74.2084 64.0489 69.7257 59.3453C67.4901 56.9841 65.6468 54.7016 64.3938 52.4754C63.7924 51.4501 63.324 50.3547 62.9998 49.2147C62.8585 48.712 62.7642 48.1976 62.7179 47.6781C62.6803 47.2071 62.6931 46.7335 62.7561 46.2651C62.8621 45.488 63.1375 44.7427 63.5634 44.0801C63.7299 43.8231 63.9158 43.5788 64.1196 43.3493C64.31 43.1431 64.5004 42.9744 64.6527 42.8133L65.1097 42.4385C65.243 42.3336 65.3649 42.2586 65.4563 42.1949L65.7344 42L65.4791 42.2211C65.3953 42.2961 65.285 42.3823 65.1631 42.4985L64.7555 42.9107C64.6146 43.0794 64.4547 43.263 64.2947 43.4804C64.1262 43.7197 63.9747 43.9701 63.8414 44.23C63.5167 44.8769 63.3375 45.5851 63.3159 46.3063C63.3064 46.7347 63.3409 47.1628 63.4187 47.5844C63.5154 48.05 63.6531 48.5064 63.8301 48.9486C64.2428 49.9701 64.7853 50.936 65.4449 51.8232C67.1178 54.0461 69.0506 56.0676 71.2034 57.8461C75.9945 61.9688 82.4195 66.2601 90.0632 70.7688L92.992 72.4779C93.9898 73.0588 94.9915 73.6285 96.0579 74.2656C98.1297 75.5287 100.221 76.8554 102.346 78.2834C106.829 81.2906 111.121 84.5662 115.196 88.0916C119.688 91.9785 123.817 96.2546 127.532 100.868C131.62 105.926 135.023 111.486 137.655 117.408C139.04 120.561 140.162 123.82 141.01 127.152C141.113 127.598 141.216 128.044 141.322 128.494L141.475 129.165L141.551 129.502L141.612 129.802C141.692 130.199 141.768 130.593 141.844 130.99L141.962 131.586L141.989 131.732C141.989 131.758 142.038 132.051 142.034 132.002L142.084 132.328C142.214 133.201 142.366 134.071 142.465 134.952C142.518 135.394 142.572 135.832 142.621 136.275C142.671 136.717 142.701 137.159 142.743 137.605C143.058 141.208 143.084 144.83 142.819 148.436C142.29 155.939 140.521 163.307 137.582 170.249L137.011 171.58L136.394 172.895C135.994 173.78 135.53 174.634 135.092 175.519C134.162 177.235 133.187 178.944 132.098 180.597C131.009 182.25 129.859 183.873 128.628 185.469C127.996 186.245 127.379 187.036 126.724 187.789C126.393 188.164 126.069 188.539 125.726 188.914L124.69 190.038C124.348 190.413 123.99 190.788 123.628 191.129L122.542 192.204L121.419 193.243L120.851 193.763L120.234 194.296L118.985 195.356L117.926 196.207L117.401 196.631C117.466 196.586 117.165 196.811 117.138 196.829L116.986 196.938L116.681 197.163L115.455 198.055C108.841 202.835 101.459 206.49 93.6166 208.867C85.7182 211.202 77.4837 212.244 69.242 211.952C61.0364 211.703 52.9226 210.176 45.2025 207.428C41.3743 206.058 37.6675 204.38 34.1197 202.41L32.7981 201.66L31.507 200.866L30.2235 200.071C29.797 199.809 29.3895 199.509 28.9705 199.232C28.1441 198.658 27.3024 198.107 26.5102 197.496L25.3105 196.593L24.7126 196.14C24.5146 195.986 24.3089 195.81 24.1071 195.649L22.8997 194.648L22.298 194.146L22.0009 193.895L21.7457 193.662L19.7691 191.837C19.6792 191.765 19.5951 191.686 19.5178 191.601L19.3845 191.47L19.1331 191.192L18.6075 190.664C18.2571 190.289 17.8991 189.963 17.5602 189.596C16.8975 188.846 16.212 188.142 15.5759 187.388C13.0302 184.419 10.7625 181.229 8.80054 177.857C1.32348 165.015 -1.5093 150.058 0.764545 135.428C1.30249 132.023 2.12668 128.668 3.22866 125.398C4.31202 122.208 5.67027 119.115 7.28857 116.152L7.86747 115.133L8.15311 114.627L8.29784 114.372C8.33131 114.306 8.36814 114.243 8.40825 114.181L8.48826 114.05C8.92625 113.356 9.34516 112.655 9.79457 111.977C10.244 111.299 10.701 110.624 11.1809 109.976C11.6608 109.327 12.1368 108.671 12.6472 108.049C14.6178 105.567 16.8254 103.277 19.2397 101.209C23.989 97.154 29.439 94.1594 35.0909 92.649C37.8501 91.9018 40.6956 91.5075 43.5572 91.4759C46.2736 91.45 48.9825 91.761 51.6199 92.4017C54.0972 93.0088 56.4995 93.881 58.7838 95.0027L59.6064 95.4187C59.8768 95.5537 60.151 95.6848 60.4099 95.8423L61.9639 96.7455C62.4666 97.0566 62.9503 97.3939 63.4378 97.7124C63.6816 97.8736 63.9253 98.0273 64.1614 98.1959L64.8584 98.7169C65.3154 99.0654 65.7952 99.399 66.2218 99.7513C66.6483 100.104 67.0597 100.452 67.4748 100.797L67.7871 101.056L67.9585 101.202L68.1071 101.34L68.7049 101.906C69.0858 102.281 69.4971 102.656 69.8704 103.031L70.9368 104.196L71.4623 104.773L71.9422 105.373L72.8867 106.561C73.1952 106.936 73.458 107.378 73.7398 107.776C75.7678 110.722 77.3664 113.934 78.4891 117.318C79.3816 120.029 79.9703 122.827 80.2448 125.664C80.2905 126.283 80.3401 126.875 80.382 127.448C80.4239 128.022 80.382 128.573 80.382 129.094C80.382 129.356 80.382 129.611 80.382 129.862C80.382 130.113 80.3515 130.353 80.34 130.593C80.3134 131.065 80.2905 131.515 80.2677 131.942C80.1626 133.233 79.9821 134.517 79.7269 135.787C79.567 136.649 79.4793 137.095 79.4793 137.095Z" fill="url(#paint1_linear_1397_26)"/>
<defs>
<linearGradient id="paint0_linear_1397_26" x1="104.5" y1="34.5" x2="79.8437" y2="102.655" gradientUnits="userSpaceOnUse">
<stop offset="0.00961538" stop-color="#DA8931"/>
<stop offset="0.414679" stop-color="#EFC356"/>
<stop offset="1" stop-color="#F1FFEB"/>
</linearGradient>
<linearGradient id="paint1_linear_1397_26" x1="129.355" y1="42" x2="111.369" y2="159.275" gradientUnits="userSpaceOnUse">
<stop stop-color="#DB8C32"/>
<stop offset="0.219041" stop-color="#EBB94F"/>
<stop offset="1" stop-color="#F2FFEB"/>
</linearGradient>
</defs>
</svg>
