<svg width="223" height="319" viewBox="0 0 223 319" fill="none" xmlns="http://www.w3.org/2000/svg">
<path d="M218 118.335C218 55.7416 170.318 5 111.5 5C52.6817 5 5 55.7416 5 118.335V200.666C5 263.258 52.6817 314 111.5 314C170.318 314 218 263.258 218 200.666V118.335Z" fill="white" stroke="#749D50" stroke-width="10" stroke-miterlimit="10"/>
<path d="M91.8229 48L91.088 48.4701L90.695 48.7348C90.529 48.8361 90.3689 48.9469 90.2156 49.0667C89.8776 49.3235 89.4846 49.6 89.0562 49.9319C88.019 50.7702 87.0468 51.6868 86.1481 52.6736C84.9609 53.9895 83.9077 55.4215 83.0042 56.9483C80.6662 61.0396 79.2421 65.5934 78.8306 70.2936C78.7992 70.6294 78.7717 70.9691 78.7402 71.3089C78.7088 71.6487 78.7088 71.9963 78.6852 72.344C78.638 73.0354 78.6459 73.7425 78.6341 74.4536C78.6428 75.9166 78.732 77.3779 78.9014 78.831C79.0723 80.3479 79.3268 81.8541 79.6637 83.3426C80.0067 84.8848 80.4504 86.4025 80.9921 87.8859C81.5373 89.4078 82.1806 90.8925 82.9177 92.3304C83.3422 93.0889 83.7692 93.8553 84.1989 94.6297L84.5447 95.2499C84.6586 95.4395 84.7726 95.6015 84.8866 95.7793L85.5704 96.8223C85.8062 97.1739 86.0106 97.5216 86.2699 97.8811L87.0559 98.9635L87.8419 100.058C88.1131 100.421 88.4078 100.773 88.6868 101.129C89.2606 101.84 89.8068 102.571 90.4395 103.262L91.3592 104.313L91.8229 104.842L92.3141 105.356C92.9743 106.039 93.611 106.742 94.2791 107.418C94.9472 108.094 95.6506 108.785 96.3619 109.46L98.5509 111.475L100.834 113.451C103.949 116.069 107.248 118.679 110.73 121.281C114.212 123.88 117.831 126.508 121.521 129.281L124.323 131.426L127.121 133.623C128.057 134.369 128.976 135.144 129.912 135.906L132.663 138.277L135.414 140.754C136.31 141.619 137.217 142.48 138.113 143.357C139.009 144.234 139.886 145.155 140.754 146.087L142.043 147.513C142.468 147.995 142.908 148.457 143.313 148.967C146.786 152.991 149.792 157.399 152.273 162.107L153.204 163.924L154.03 165.805L154.423 166.753C154.552 167.069 154.698 167.377 154.816 167.709L155.499 169.661L155.837 170.64L155.92 170.885L155.959 171.004C155.928 170.893 156.053 171.304 156.05 171.296L156.171 171.723L156.411 172.576L156.525 173.003L156.659 173.556L156.918 174.674L157.044 175.231C157.087 175.417 157.111 175.579 157.146 175.757C157.268 176.448 157.405 177.139 157.5 177.835C157.901 180.581 158.061 183.357 157.979 186.131C157.889 188.861 157.576 191.579 157.044 194.257C154.984 204.6 149.678 214.005 141.906 221.09C140.06 222.754 138.078 224.256 135.979 225.582C134.95 226.238 133.889 226.839 132.836 227.404L131.122 228.257L129.644 228.881C127.454 229.792 125.186 230.504 122.869 231.007C121.753 231.267 120.633 231.441 119.525 231.607L117.862 231.797C117.308 231.848 116.758 231.884 116.212 231.923C114.062 232.047 111.906 232.021 109.759 231.844C107.699 231.657 105.654 231.333 103.636 230.876C99.8413 230 96.1811 228.614 92.7543 226.756L91.5399 226.076L90.361 225.349C90.1723 225.227 89.968 225.112 89.7872 224.986L89.2292 224.591C88.8637 224.33 88.4904 224.089 88.1367 223.82C87.4293 223.275 86.7258 222.754 86.0774 222.173C85.429 221.592 84.7962 221.023 84.1831 220.442C81.9008 218.215 79.9379 215.68 78.3512 212.909C78.1625 212.585 78.0014 212.249 77.8285 211.925L77.573 211.439L77.4512 211.198L77.4198 211.139C77.4039 211.112 77.3895 211.084 77.3765 211.056L77.3215 210.937C77.0386 210.293 76.7399 209.701 76.4884 209.025C76.3587 208.697 76.2329 208.373 76.0954 208.053C75.9578 207.733 75.8792 207.413 75.7692 207.097C75.5452 206.469 75.3762 205.837 75.1994 205.221C74.5849 202.968 74.2042 200.658 74.0636 198.327C73.8698 195.083 74.199 191.829 75.0382 188.691C75.2599 187.874 75.5222 187.068 75.8242 186.277C76.0246 185.74 76.1307 185.463 76.1307 185.463L75.8753 186.293C75.6945 186.838 75.4823 187.664 75.2544 188.746C74.6601 191.872 74.5765 195.075 75.0068 198.228C75.3073 200.457 75.8557 202.645 76.6417 204.75C76.8617 205.319 77.07 205.908 77.3372 206.481C77.4669 206.769 77.5927 207.062 77.7302 207.358L78.1586 208.215C78.4258 208.784 78.7992 209.4 79.1332 209.997L79.1961 210.111L79.2157 210.147L79.2511 210.198L79.3887 210.412L79.6637 210.846C79.8524 211.131 80.0292 211.427 80.2297 211.711C81.91 214.129 83.918 216.299 86.1953 218.159C86.8084 218.633 87.4135 219.123 88.0737 219.561C88.7339 220 89.3981 220.438 90.078 220.869C90.4199 221.082 90.7854 221.264 91.1351 221.47L91.6697 221.77C91.8504 221.869 92.039 221.956 92.2237 222.046L93.3359 222.596L94.4834 223.101C97.6924 224.451 101.071 225.35 104.524 225.772C106.323 225.986 108.133 226.081 109.944 226.056C111.789 226.005 113.628 225.815 115.446 225.487C119.116 224.831 122.636 223.507 125.832 221.58L127.188 220.719C127.306 220.652 127.121 220.747 127.165 220.719L127.239 220.668L127.381 220.561L127.672 220.352L128.245 219.929C129 219.344 129.747 218.744 130.446 218.096C131.864 216.792 133.168 215.368 134.345 213.841C135.536 212.3 136.6 210.663 137.524 208.946C138.448 207.211 139.247 205.412 139.913 203.561C141.245 199.846 142.08 195.969 142.397 192.033C142.725 188.151 142.526 184.242 141.804 180.414C141.721 179.94 141.599 179.478 141.505 179.012C141.481 178.897 141.458 178.767 141.43 178.668L141.352 178.364L141.194 177.759L141.12 177.451L140.994 177.025L140.742 176.175L140.617 175.749C140.617 175.674 140.695 176.013 140.636 175.828L140.605 175.741L140.542 175.567L140.291 174.872C140.122 174.409 139.964 173.943 139.803 173.477C139.642 173.011 139.41 172.56 139.233 172.098L138.667 170.719L137.999 169.364C136.154 165.65 133.914 162.148 131.319 158.919C131.008 158.492 130.647 158.089 130.309 157.678L129.279 156.446C128.583 155.628 127.845 154.83 127.133 154.02L124.881 151.65L122.547 149.323L120.146 147.043L117.686 144.799L115.19 142.583L112.671 140.402L107.515 136.013C105.786 134.547 104.084 133.062 102.383 131.572C98.995 128.582 95.6506 125.559 92.5342 122.355L90.2274 119.938L88.003 117.468C87.2799 116.635 86.5765 115.782 85.873 114.948C85.5154 114.553 85.1892 114.087 84.8551 113.656L83.8609 112.356L83.3696 111.712L82.8981 111.045L81.9706 109.713C81.3379 108.848 80.7916 107.92 80.2061 107.023C79.927 106.573 79.6362 106.13 79.3651 105.672L78.5791 104.289L77.8128 102.914C77.5612 102.456 77.3294 101.942 77.0936 101.464C76.8578 100.986 76.6259 100.492 76.3941 100.01C76.2801 99.7695 76.1583 99.5245 76.0561 99.2954L75.7888 98.6356C75.4142 97.7112 75.0435 96.7894 74.6767 95.8702C73.9745 93.9807 73.4148 92.0407 73.0026 90.0667C71.524 83.1841 71.6828 76.0479 73.4663 69.2388C75.0618 63.2535 77.8167 58.493 80.7209 55.2455C81.9964 53.7987 83.4278 52.4989 84.9888 51.3699C86.123 50.5464 87.3261 49.8233 88.5846 49.2089C89.0994 48.9679 89.5632 48.7743 89.9562 48.6084C90.1339 48.5265 90.3164 48.4553 90.5025 48.3951L90.9622 48.237L91.8229 48Z" fill="url(#paint0_linear_1397_44)"/>
<path d="M119.814 190.011L120.036 188.641C120.248 187.314 120.38 185.976 120.433 184.634C120.433 184.193 120.433 183.725 120.457 183.233C120.457 182.987 120.457 182.737 120.457 182.476C120.457 182.214 120.429 181.957 120.413 181.695C120.382 181.157 120.35 180.591 120.318 180.002C120.286 179.413 120.171 178.808 120.096 178.172C119.693 175.282 118.96 172.447 117.909 169.719C116.615 166.353 114.838 163.186 112.631 160.315C112.326 159.925 112.04 159.535 111.711 159.144L110.703 158.009L110.195 157.431L109.639 156.889L108.516 155.785C108.119 155.43 107.723 155.094 107.306 154.743L106.687 154.216L106.532 154.087L106.385 153.974L106.048 153.724L104.715 152.682C104.254 152.347 103.79 152.062 103.322 151.746C103.088 151.59 102.854 151.434 102.615 151.281C102.377 151.129 102.123 150.989 101.877 150.844C101.377 150.56 100.881 150.251 100.369 149.978L98.7819 149.198C98.524 149.057 98.2502 148.944 97.9883 148.827L97.1668 148.472C94.9109 147.519 92.5555 146.812 90.1429 146.365C84.9851 145.431 79.6689 145.834 74.718 147.535C69.3749 149.398 64.5348 152.436 60.5669 156.417C58.4579 158.492 56.555 160.76 54.8842 163.191C54.4517 163.8 54.0628 164.448 53.6501 165.076C53.2374 165.704 52.8565 166.375 52.4874 167.027C52.1183 167.679 51.7731 168.369 51.408 169.04L51.3405 169.165C51.289 169.267 51.3405 169.165 51.3088 169.236L51.1778 169.509L50.9159 170.055L50.3921 171.159C47.8377 176.878 46.2995 182.985 45.8444 189.215C45.3906 195.673 46.0617 202.159 47.8286 208.394C49.6291 214.739 52.5259 220.732 56.3922 226.11C58.3239 228.794 60.4982 231.3 62.8884 233.599C63.4797 234.176 64.1106 234.715 64.7178 235.277C65.0273 235.554 65.3567 235.811 65.6702 236.077L66.1503 236.467L66.3884 236.666L66.5075 236.763L68.7377 238.473C68.829 238.543 68.9242 238.621 69.0115 238.683L69.2576 238.851L69.7496 239.183L70.7258 239.85C70.8925 239.959 71.0433 240.073 71.2179 240.186L71.7536 240.517L72.8251 241.185C73.5275 241.645 74.2775 242.031 75.0077 242.449C75.3767 242.648 75.7339 242.87 76.1148 243.058L77.2458 243.624L78.3728 244.189L79.5316 244.708C82.6094 246.101 85.7939 247.253 89.0555 248.154C95.6235 249.949 102.429 250.762 109.243 250.566C116.014 250.368 122.731 249.319 129.231 247.444C135.666 245.623 141.816 242.942 147.509 239.476L148.561 238.82L148.823 238.656L148.954 238.574C148.803 238.687 149.025 238.527 148.954 238.574L149.533 238.184L150.684 237.403L151.573 236.752L152.017 236.428L152.489 236.038L153.434 235.292L154.347 234.512C154.656 234.25 154.962 233.993 155.251 233.731L156.14 232.92C156.434 232.647 156.712 232.358 156.997 232.077C157.581 231.527 158.117 230.926 158.672 230.348C159.747 229.158 160.799 227.941 161.759 226.661C162.72 225.381 163.64 224.062 164.513 222.715C164.91 222.029 165.367 221.358 165.752 220.655L166.343 219.609L166.898 218.544C168.369 215.707 169.597 212.755 170.569 209.717C171.543 206.703 172.274 203.619 172.756 200.492C173.242 197.403 173.477 194.28 173.458 191.154C173.458 190.764 173.458 190.374 173.458 189.984C173.458 189.593 173.43 189.203 173.414 188.813C173.414 188.033 173.323 187.276 173.275 186.507V186.218C173.256 186.066 173.275 186.265 173.275 186.187V186.031L173.208 185.402L173.065 184.154L173.029 183.845L172.99 183.58L172.91 183.049L172.756 181.988C172.255 179.029 171.512 176.115 170.533 173.274C168.588 167.692 165.92 162.379 162.597 157.466C159.421 152.752 155.826 148.324 151.854 144.234C148.153 140.4 144.215 136.793 140.065 133.433C138.08 131.821 136.096 130.311 134.144 128.855C133.187 128.161 132.16 127.447 131.199 126.752L128.302 124.668C120.707 119.158 114.322 113.957 109.651 109.059C107.322 106.601 105.401 104.225 104.096 101.907C103.469 100.839 102.981 99.6987 102.643 98.5118C102.496 97.9884 102.398 97.4528 102.349 96.9119C102.31 96.4215 102.324 95.9284 102.389 95.4407C102.5 94.6317 102.787 93.8556 103.23 93.1657C103.404 92.8982 103.598 92.6438 103.81 92.4048C104.008 92.1902 104.207 92.0146 104.365 91.8468L104.842 91.4566C104.98 91.3473 105.107 91.2693 105.203 91.2029L105.492 91L105.227 91.2302C105.139 91.3083 105.024 91.398 104.897 91.519L104.473 91.9482C104.326 92.1238 104.159 92.3151 103.992 92.5414C103.817 92.7905 103.659 93.0512 103.52 93.3218C103.182 93.9954 102.995 94.7327 102.973 95.4836C102.963 95.9296 102.999 96.3754 103.08 96.8143C103.18 97.2991 103.324 97.7743 103.508 98.2347C103.938 99.2983 104.504 100.304 105.191 101.228C106.934 103.542 108.948 105.647 111.191 107.499C116.183 111.791 122.878 116.259 130.842 120.953L133.894 122.733C134.933 123.338 135.977 123.931 137.088 124.594C139.247 125.909 141.426 127.291 143.64 128.777C148.312 131.909 152.783 135.319 157.029 138.989C161.71 143.036 166.012 147.489 169.883 152.292C174.143 157.559 177.688 163.347 180.43 169.513C181.874 172.796 183.043 176.189 183.927 179.658C184.034 180.123 184.141 180.587 184.252 181.055L184.411 181.754L184.49 182.105L184.554 182.417C184.637 182.831 184.716 183.241 184.796 183.654L184.919 184.275L184.946 184.427C184.946 184.454 184.998 184.759 184.994 184.708L185.046 185.047C185.181 185.957 185.339 186.862 185.442 187.779C185.498 188.239 185.554 188.696 185.605 189.156C185.657 189.617 185.688 190.077 185.732 190.542C186.06 194.293 186.087 198.064 185.811 201.819C185.26 209.631 183.417 217.302 180.355 224.53L179.76 225.915L179.117 227.285C178.7 228.206 178.216 229.096 177.76 230.017C176.791 231.804 175.776 233.583 174.641 235.304C173.506 237.025 172.307 238.715 171.025 240.377C170.367 241.185 169.724 242.008 169.041 242.792C168.696 243.183 168.359 243.573 168.002 243.963L166.922 245.134C166.565 245.524 166.192 245.914 165.815 246.269L164.684 247.389L163.513 248.47L162.922 249.013L162.279 249.567L160.978 250.671L159.874 251.557L159.327 251.998C159.394 251.951 159.081 252.185 159.053 252.205L158.894 252.318L158.577 252.552L157.299 253.481C150.408 258.458 142.716 262.263 134.545 264.738C126.315 267.169 117.735 268.254 109.147 267.95C100.597 267.69 92.1432 266.101 84.0991 263.24C80.1103 261.813 76.248 260.066 72.5513 258.015L71.1743 257.235L69.829 256.407L68.4917 255.58C68.0472 255.307 67.6226 254.995 67.1861 254.706C66.3249 254.109 65.448 253.535 64.6225 252.899L63.3725 251.959L62.7495 251.487C62.5432 251.327 62.3289 251.143 62.1185 250.975L60.8606 249.933L60.2336 249.411L59.9241 249.149L59.6582 248.907L57.5986 247.007C57.5049 246.932 57.4173 246.85 57.3367 246.761L57.1978 246.624L56.9359 246.336L56.3883 245.785C56.0232 245.395 55.6501 245.056 55.297 244.673C54.6065 243.893 53.8922 243.159 53.2295 242.375C50.577 239.283 48.2141 235.962 46.1698 232.452C38.379 219.081 35.4274 203.508 37.7966 188.275C38.3571 184.73 39.2159 181.237 40.3641 177.832C41.4929 174.511 42.9082 171.29 44.5944 168.205L45.1976 167.144L45.4952 166.617L45.646 166.352C45.6809 166.284 45.7193 166.217 45.761 166.153L45.8444 166.016C46.3008 165.294 46.7373 164.565 47.2055 163.858C47.6738 163.152 48.15 162.45 48.65 161.775C49.15 161.099 49.646 160.417 50.1778 159.769C52.2311 157.185 54.5314 154.8 57.047 152.647C61.9955 148.425 67.6742 145.307 73.5632 143.735C76.4382 142.957 79.4031 142.546 82.3848 142.513C85.2151 142.486 88.0378 142.81 90.7858 143.477C93.367 144.109 95.8701 145.017 98.2502 146.185L99.1074 146.618C99.3891 146.759 99.6748 146.895 99.9446 147.059L101.564 148C102.088 148.324 102.592 148.675 103.1 149.006C103.354 149.174 103.607 149.334 103.853 149.51L104.58 150.052C105.056 150.415 105.556 150.762 106 151.129C106.445 151.496 106.873 151.859 107.306 152.218L107.631 152.487L107.81 152.639L107.965 152.784L108.588 153.373C108.985 153.763 109.413 154.154 109.802 154.544L110.913 155.757L111.461 156.358L111.961 156.983L112.945 158.22C113.266 158.61 113.54 159.07 113.834 159.484C115.947 162.552 117.613 165.896 118.782 169.419C119.712 172.242 120.326 175.156 120.612 178.109C120.659 178.753 120.711 179.37 120.755 179.967C120.798 180.564 120.755 181.137 120.755 181.68C120.755 181.953 120.755 182.218 120.755 182.48C120.755 182.741 120.723 182.991 120.711 183.241C120.683 183.732 120.659 184.201 120.636 184.645C120.526 185.99 120.338 187.326 120.072 188.649C119.905 189.547 119.814 190.011 119.814 190.011Z" fill="url(#paint1_linear_1397_44)"/>
<defs>
<linearGradient id="paint0_linear_1397_44" x1="98.3375" y1="48" x2="98.6535" y2="226.046" gradientUnits="userSpaceOnUse">
<stop stop-color="#D47824"/>
<stop offset="0.299436" stop-color="#F0C65E"/>
<stop offset="0.487195" stop-color="#739E54"/>
<stop offset="0.709807" stop-color="#7BA454"/>
<stop offset="1" stop-color="#436D2F"/>
</linearGradient>
<linearGradient id="paint1_linear_1397_44" x1="169.157" y1="130.405" x2="153.049" y2="213.108" gradientUnits="userSpaceOnUse">
<stop stop-color="#C07E2E"/>
<stop offset="0.197115" stop-color="#EFC65E"/>
<stop offset="1" stop-color="#77A155"/>
</linearGradient>
</defs>
</svg>
