<svg width="149" height="220" viewBox="0 0 149 220" fill="none" xmlns="http://www.w3.org/2000/svg">
<path d="M54.8229 0L54.088 0.47013L53.695 0.734829C53.529 0.836052 53.3689 0.946854 53.2156 1.06668C52.8776 1.32348 52.4846 1.60002 52.0562 1.93188C51.019 2.77024 50.0468 3.68682 49.1481 4.67364C47.9609 5.98951 46.9077 7.42152 46.0042 8.94826C43.6662 13.0396 42.2421 17.5934 41.8306 22.2936C41.7992 22.6294 41.7717 22.9691 41.7402 23.3089C41.7088 23.6487 41.7088 23.9963 41.6852 24.344C41.638 25.0354 41.6459 25.7425 41.6341 26.4536C41.6428 27.9166 41.732 29.3779 41.9014 30.831C42.0723 32.3479 42.3268 33.8541 42.6637 35.3426C43.0067 36.8848 43.4504 38.4025 43.9921 39.8859C44.5373 41.4078 45.1806 42.8925 45.9177 44.3304C46.3422 45.0889 46.7692 45.8553 47.1989 46.6297L47.5447 47.2499C47.6586 47.4395 47.7726 47.6015 47.8866 47.7793L48.5704 48.8223C48.8062 49.1739 49.0106 49.5216 49.2699 49.8811L50.0559 50.9635L50.8419 52.0579C51.1131 52.4213 51.4078 52.7729 51.6868 53.1285C52.2606 53.8396 52.8068 54.5705 53.4395 55.2619L54.3592 56.3127L54.8229 56.8421L55.3141 57.3557C55.9743 58.0392 56.611 58.7424 57.2791 59.4179C57.9472 60.0935 58.6506 60.7849 59.3619 61.4605L61.5509 63.4753L63.8342 65.4506C66.9494 68.0686 70.2478 70.6787 73.7297 73.2808C77.2116 75.8804 80.8311 78.5076 84.5213 81.2809L87.3233 83.4261L90.1214 85.6227C91.0567 86.3694 91.9764 87.1437 92.9117 87.9062L95.6626 90.2766L98.4136 92.7536C99.3096 93.6188 100.217 94.4801 101.113 95.3571C102.009 96.2342 102.886 97.1547 103.754 98.087L105.043 99.5132C105.468 99.9952 105.908 100.457 106.313 100.967C109.786 104.991 112.792 109.399 115.273 114.107L116.204 115.924L117.03 117.805L117.423 118.753C117.552 119.069 117.698 119.377 117.816 119.709L118.499 121.661L118.837 122.64L118.92 122.885L118.959 123.004C118.928 122.893 119.053 123.304 119.05 123.296L119.171 123.723L119.411 124.576L119.525 125.003L119.659 125.556L119.918 126.674L120.044 127.231C120.087 127.417 120.111 127.579 120.146 127.757C120.268 128.448 120.405 129.139 120.5 129.835C120.901 132.581 121.061 135.357 120.979 138.131C120.889 140.861 120.576 143.579 120.044 146.257C117.984 156.6 112.678 166.005 104.906 173.09C103.06 174.754 101.078 176.256 98.9795 177.582C97.9498 178.238 96.8887 178.839 95.8355 179.404L94.122 180.257L92.6444 180.881C90.454 181.792 88.1865 182.504 85.8692 183.007C84.7531 183.267 83.6331 183.441 82.5248 183.607L80.8625 183.797C80.3084 183.848 79.7582 183.884 79.212 183.923C77.0618 184.047 74.9056 184.021 72.7591 183.844C70.6992 183.657 68.6538 183.333 66.6362 182.876C62.8413 182 59.1811 180.614 55.7543 178.756L54.5399 178.076L53.361 177.349C53.1723 177.227 52.968 177.112 52.7872 176.986L52.2292 176.591C51.8637 176.33 51.4904 176.089 51.1367 175.82C50.4293 175.275 49.7258 174.754 49.0774 174.173C48.429 173.592 47.7962 173.023 47.1831 172.442C44.9008 170.215 42.9379 167.68 41.3512 164.909C41.1625 164.585 41.0014 164.249 40.8285 163.925L40.573 163.439L40.4512 163.198L40.4198 163.139C40.4039 163.112 40.3895 163.084 40.3765 163.056L40.3215 162.937C40.0386 162.293 39.7399 161.701 39.4884 161.025C39.3587 160.697 39.2329 160.373 39.0954 160.053C38.9578 159.733 38.8792 159.413 38.7692 159.097C38.5452 158.469 38.3762 157.837 38.1994 157.221C37.5849 154.968 37.2042 152.658 37.0636 150.327C36.8698 147.083 37.199 143.829 38.0382 140.691C38.2599 139.874 38.5222 139.068 38.8242 138.277C39.0246 137.74 39.1307 137.463 39.1307 137.463L38.8753 138.293C38.6945 138.838 38.4823 139.664 38.2544 140.746C37.6601 143.872 37.5765 147.075 38.0068 150.228C38.3073 152.457 38.8557 154.645 39.6417 156.75C39.8617 157.319 40.07 157.908 40.3372 158.481C40.4669 158.769 40.5927 159.062 40.7302 159.358L41.1586 160.215C41.4258 160.784 41.7992 161.4 42.1332 161.997L42.1961 162.111L42.2157 162.147L42.2511 162.198L42.3887 162.412L42.6637 162.846C42.8524 163.131 43.0292 163.427 43.2297 163.711C44.91 166.129 46.918 168.299 49.1953 170.159C49.8084 170.633 50.4135 171.123 51.0737 171.561C51.7339 172 52.3981 172.438 53.078 172.869C53.4199 173.082 53.7854 173.264 54.1351 173.47L54.6697 173.77C54.8504 173.869 55.039 173.956 55.2237 174.046L56.3359 174.596L57.4834 175.101C60.6924 176.451 64.0712 177.35 67.5244 177.772C69.3227 177.986 71.1331 178.081 72.9438 178.056C74.7893 178.005 76.6284 177.815 78.4456 177.487C82.1156 176.831 85.6355 175.507 88.8324 173.58L90.1882 172.719C90.3061 172.652 90.1214 172.747 90.1647 172.719L90.2393 172.668L90.3807 172.561L90.6716 172.352L91.2454 171.929C91.9999 171.344 92.7466 170.744 93.4461 170.096C94.8636 168.792 96.1678 167.368 97.3445 165.841C98.5362 164.3 99.5996 162.663 100.524 160.946C101.448 159.211 102.247 157.412 102.913 155.561C104.245 151.846 105.08 147.969 105.397 144.033C105.725 140.151 105.526 136.242 104.804 132.414C104.721 131.94 104.599 131.478 104.505 131.012C104.481 130.897 104.458 130.767 104.43 130.668L104.352 130.364L104.194 129.759L104.12 129.451L103.994 129.025L103.742 128.175L103.617 127.749C103.617 127.674 103.695 128.013 103.636 127.828L103.605 127.741L103.542 127.567L103.291 126.872C103.122 126.409 102.964 125.943 102.803 125.477C102.642 125.011 102.41 124.56 102.233 124.098L101.667 122.719L100.999 121.364C99.1539 117.65 96.9139 114.148 94.3185 110.919C94.0081 110.492 93.6466 110.089 93.3086 109.678L92.2789 108.446C91.5833 107.628 90.8445 106.83 90.1332 106.02L87.8814 103.65L85.547 101.323L83.1458 99.0431L80.6857 96.7991L78.1901 94.5828L75.6711 92.402L70.5151 88.0128C68.7859 86.5471 67.0843 85.0617 65.3826 83.5723C61.995 80.5816 58.6506 77.5594 55.5342 74.3554L53.2274 71.9376L51.003 69.4684C50.2799 68.6348 49.5765 67.7815 48.873 66.9479C48.5154 66.5528 48.1892 66.0867 47.8551 65.6561L46.8609 64.3563L46.3696 63.7123L45.8981 63.0447L44.9706 61.7133C44.3379 60.8481 43.7916 59.9197 43.2061 59.0229C42.927 58.5725 42.6362 58.13 42.3651 57.6718L41.5791 56.289L40.8128 54.9142C40.5612 54.4559 40.3294 53.9423 40.0936 53.4643C39.8578 52.9863 39.6259 52.4924 39.3941 52.0105C39.2801 51.7695 39.1583 51.5245 39.0561 51.2954L38.7888 50.6356C38.4142 49.7112 38.0435 48.7894 37.6767 47.8702C36.9745 45.9807 36.4148 44.0407 36.0026 42.0667C34.524 35.1841 34.6828 28.0479 36.4663 21.2388C38.0618 15.2535 40.8167 10.493 43.7209 7.24551C44.9964 5.79873 46.4278 4.49889 47.9888 3.36991C49.123 2.54639 50.3261 1.82334 51.5846 1.2089C52.0994 0.967911 52.5632 0.774333 52.9562 0.608405C53.1339 0.526548 53.3164 0.455309 53.5025 0.395066L53.9622 0.237042L54.8229 0Z" fill="url(#paint0_linear_1397_25)"/>
<path d="M82.8141 142.011L83.0363 140.641C83.2476 139.314 83.3801 137.976 83.4332 136.634C83.4332 136.193 83.4332 135.725 83.457 135.233C83.457 134.987 83.457 134.737 83.457 134.476C83.457 134.214 83.4292 133.957 83.4133 133.695C83.3816 133.157 83.3498 132.591 83.3181 132.002C83.2863 131.413 83.1712 130.808 83.0958 130.172C82.6932 127.282 81.9597 124.447 80.9093 121.719C79.6149 118.353 77.8377 115.186 75.6315 112.315C75.3259 111.925 75.0402 111.535 74.7108 111.144L73.7028 110.009L73.1949 109.431L72.6393 108.889L71.5163 107.785C71.1194 107.43 70.7226 107.094 70.3059 106.743L69.6869 106.216L69.5321 106.087L69.3853 105.974L69.048 105.724L67.7146 104.682C67.2542 104.347 66.7899 104.062 66.3217 103.746C66.0876 103.59 65.8535 103.434 65.6154 103.281C65.3773 103.129 65.1233 102.989 64.8773 102.844C64.3772 102.56 63.8812 102.251 63.3693 101.978L61.7819 101.198C61.524 101.057 61.2502 100.944 60.9883 100.827L60.1668 100.472C57.9109 99.519 55.5555 98.8123 53.1429 98.3647C47.9851 97.4307 42.6689 97.8342 37.718 99.5353C32.3749 101.398 27.5348 104.436 23.5669 108.417C21.4579 110.492 19.555 112.76 17.8842 115.191C17.4517 115.8 17.0628 116.448 16.6501 117.076C16.2374 117.704 15.8565 118.375 15.4874 119.027C15.1183 119.679 14.7731 120.369 14.408 121.04L14.3405 121.165C14.289 121.267 14.3405 121.165 14.3088 121.236L14.1778 121.509L13.9159 122.055L13.3921 123.159C10.8377 128.878 9.29954 134.985 8.84441 141.215C8.39062 147.673 9.06165 154.159 10.8286 160.394C12.6291 166.739 15.5259 172.732 19.3922 178.11C21.3239 180.794 23.4982 183.3 25.8884 185.599C26.4797 186.176 27.1106 186.715 27.7178 187.277C28.0273 187.554 28.3567 187.811 28.6702 188.077L29.1503 188.467L29.3884 188.666L29.5075 188.763L31.7377 190.473C31.829 190.543 31.9242 190.621 32.0115 190.683L32.2576 190.851L32.7496 191.183L33.7258 191.85C33.8925 191.959 34.0433 192.073 34.2179 192.186L34.7536 192.517L35.8251 193.185C36.5275 193.645 37.2775 194.031 38.0077 194.449C38.3767 194.648 38.7339 194.87 39.1148 195.058L40.2458 195.624L41.3728 196.189L42.5316 196.708C45.6094 198.101 48.7939 199.253 52.0555 200.154C58.6235 201.949 65.4286 202.762 72.2425 202.566C79.0135 202.368 85.7309 201.319 92.2309 199.444C98.6658 197.623 104.816 194.942 110.509 191.476L111.561 190.82L111.823 190.656L111.954 190.574C111.803 190.687 112.025 190.527 111.954 190.574L112.533 190.184L113.684 189.403L114.573 188.752L115.017 188.428L115.489 188.038L116.434 187.292L117.347 186.512C117.656 186.25 117.962 185.993 118.251 185.731L119.14 184.92C119.434 184.647 119.712 184.358 119.997 184.077C120.581 183.527 121.117 182.926 121.672 182.348C122.747 181.158 123.799 179.941 124.759 178.661C125.72 177.381 126.64 176.062 127.513 174.715C127.91 174.029 128.367 173.358 128.752 172.655L129.343 171.609L129.898 170.544C131.369 167.707 132.597 164.755 133.569 161.717C134.543 158.703 135.274 155.619 135.756 152.492C136.242 149.403 136.477 146.28 136.458 143.154C136.458 142.764 136.458 142.374 136.458 141.984C136.458 141.593 136.43 141.203 136.414 140.813C136.414 140.033 136.323 139.276 136.275 138.507V138.218C136.256 138.066 136.275 138.265 136.275 138.187V138.031L136.208 137.402L136.065 136.154L136.029 135.845L135.99 135.58L135.91 135.049L135.756 133.988C135.255 131.029 134.512 128.115 133.533 125.274C131.588 119.692 128.92 114.379 125.597 109.466C122.421 104.752 118.826 100.324 114.854 96.2341C111.153 92.4001 107.215 88.7929 103.065 85.4327C101.08 83.8211 99.0962 82.311 97.1438 80.8554C96.1874 80.1608 95.1596 79.4467 94.1992 78.7521L91.3024 76.6684C83.707 71.1584 77.322 65.9568 72.6513 61.0595C70.3218 58.6011 68.4012 56.2246 67.0956 53.9067C66.469 52.8393 65.9809 51.6987 65.6431 50.5118C65.496 49.9884 65.3977 49.4528 65.3495 48.9119C65.3103 48.4215 65.3236 47.9284 65.3892 47.4407C65.4997 46.6317 65.7866 45.8556 66.2304 45.1657C66.4039 44.8982 66.5976 44.6438 66.8099 44.4048C67.0083 44.1902 67.2067 44.0146 67.3654 43.8468L67.8416 43.4566C67.9805 43.3473 68.1074 43.2693 68.2027 43.2029L68.4924 43L68.2265 43.2302C68.1392 43.3083 68.0242 43.398 67.8972 43.519L67.4726 43.9482C67.3257 44.1238 67.1591 44.3151 66.9924 44.5414C66.8168 44.7905 66.6589 45.0512 66.5201 45.3218C66.1817 45.9954 65.995 46.7327 65.9725 47.4836C65.9626 47.9296 65.9986 48.3754 66.0797 48.8143C66.1804 49.2991 66.3239 49.7743 66.5083 50.2347C66.9382 51.2983 67.5036 52.304 68.1908 53.2277C69.934 55.5421 71.9478 57.6468 74.1909 59.4986C79.1831 63.791 85.8777 68.2591 93.8421 72.9534L96.8937 74.7328C97.9334 75.3377 98.9771 75.9308 100.088 76.5942C102.247 77.9093 104.426 79.2906 106.64 80.7774C111.312 83.9085 115.783 87.319 120.029 90.9895C124.71 95.0365 129.012 99.4886 132.883 104.292C137.143 109.559 140.688 115.347 143.43 121.513C144.874 124.796 146.043 128.189 146.927 131.658C147.034 132.123 147.141 132.587 147.252 133.055L147.411 133.754L147.49 134.105L147.554 134.417C147.637 134.831 147.716 135.241 147.796 135.654L147.919 136.275L147.946 136.427C147.946 136.454 147.998 136.759 147.994 136.708L148.046 137.047C148.181 137.957 148.339 138.862 148.442 139.779C148.498 140.239 148.554 140.696 148.605 141.156C148.657 141.617 148.688 142.077 148.732 142.542C149.06 146.293 149.087 150.064 148.811 153.819C148.26 161.631 146.417 169.302 143.355 176.53L142.76 177.915L142.117 179.285C141.7 180.206 141.216 181.096 140.76 182.017C139.791 183.804 138.776 185.583 137.641 187.304C136.506 189.025 135.307 190.715 134.025 192.377C133.367 193.185 132.724 194.008 132.041 194.792C131.696 195.183 131.359 195.573 131.002 195.963L129.922 197.134C129.565 197.524 129.192 197.914 128.815 198.269L127.684 199.389L126.513 200.47L125.922 201.013L125.279 201.567L123.978 202.671L122.874 203.557L122.327 203.998C122.394 203.951 122.081 204.185 122.053 204.205L121.894 204.318L121.577 204.552L120.299 205.481C113.408 210.458 105.716 214.263 97.5446 216.738C89.3147 219.169 80.7348 220.254 72.1473 219.95C63.5974 219.69 55.1432 218.101 47.0991 215.24C43.1103 213.813 39.248 212.066 35.5513 210.015L34.1743 209.235L32.829 208.407L31.4917 207.58C31.0472 207.307 30.6226 206.995 30.1861 206.706C29.3249 206.109 28.448 205.535 27.6225 204.899L26.3725 203.959L25.7495 203.487C25.5432 203.327 25.3289 203.143 25.1185 202.975L23.8606 201.933L23.2336 201.411L22.9241 201.149L22.6582 200.907L20.5986 199.007C20.5049 198.932 20.4173 198.85 20.3367 198.761L20.1978 198.624L19.9359 198.336L19.3883 197.785C19.0232 197.395 18.6501 197.056 18.297 196.673C17.6065 195.893 16.8922 195.159 16.2295 194.375C13.577 191.283 11.2141 187.962 9.1698 184.452C1.37901 171.081 -1.57263 155.508 0.796624 140.275C1.35714 136.73 2.21592 133.237 3.36412 129.832C4.49294 126.511 5.90818 123.29 7.59438 120.205L8.19757 119.144L8.4952 118.617L8.646 118.352C8.68088 118.284 8.71926 118.217 8.76105 118.153L8.84441 118.016C9.30077 117.294 9.73726 116.565 10.2055 115.858C10.6738 115.152 11.15 114.45 11.65 113.775C12.15 113.099 12.646 112.417 13.1778 111.769C15.2311 109.185 17.5314 106.8 20.047 104.647C24.9955 100.425 30.6742 97.3072 36.5632 95.7346C39.4382 94.9566 42.4031 94.546 45.3848 94.5132C48.2151 94.4862 51.0378 94.81 53.7858 95.477C56.367 96.1092 58.8701 97.0173 61.2502 98.1852L62.1074 98.6183C62.3891 98.7588 62.6748 98.8954 62.9446 99.0593L64.5637 99.9997C65.0876 100.324 65.5916 100.675 66.0995 101.006C66.3535 101.174 66.6074 101.334 66.8535 101.51L67.5797 102.052C68.0559 102.415 68.5559 102.762 69.0003 103.129C69.4448 103.496 69.8734 103.859 70.3059 104.218L70.6313 104.487L70.8099 104.639L70.9647 104.784L71.5877 105.373C71.9845 105.763 72.4131 106.154 72.802 106.544L73.9132 107.757L74.4607 108.358L74.9607 108.983L75.9449 110.22C76.2663 110.61 76.5401 111.07 76.8338 111.484C78.9468 114.552 80.6126 117.896 81.7824 121.419C82.7123 124.242 83.3257 127.156 83.6117 130.109C83.6594 130.753 83.711 131.37 83.7546 131.967C83.7983 132.564 83.7546 133.137 83.7546 133.68C83.7546 133.953 83.7546 134.218 83.7546 134.48C83.7546 134.741 83.7229 134.991 83.711 135.241C83.6832 135.732 83.6594 136.201 83.6356 136.645C83.5261 137.99 83.338 139.326 83.0721 140.649C82.9054 141.547 82.8141 142.011 82.8141 142.011Z" fill="url(#paint1_linear_1397_25)"/>
<defs>
<linearGradient id="paint0_linear_1397_25" x1="61.3375" y1="1.4754e-07" x2="61.6535" y2="178.046" gradientUnits="userSpaceOnUse">
<stop stop-color="#D47824"/>
<stop offset="0.299436" stop-color="#F0C65E"/>
<stop offset="0.487195" stop-color="#739E54"/>
<stop offset="0.709807" stop-color="#7BA454"/>
<stop offset="1" stop-color="#436D2F"/>
</linearGradient>
<linearGradient id="paint1_linear_1397_25" x1="132.157" y1="82.4051" x2="116.049" y2="165.108" gradientUnits="userSpaceOnUse">
<stop stop-color="#C07E2E"/>
<stop offset="0.197115" stop-color="#EFC65E"/>
<stop offset="1" stop-color="#77A155"/>
</linearGradient>
</defs>
</svg>
