<svg width="223" height="319" viewBox="0 0 223 319" fill="none" xmlns="http://www.w3.org/2000/svg">
<path d="M218 118.335C218 55.7416 170.318 5 111.5 5C52.6817 5 5 55.7416 5 118.335V200.666C5 263.258 52.6817 314 111.5 314C170.318 314 218 263.258 218 200.666V118.335Z" fill="#436D2F" stroke="#D49B3E" stroke-width="10" stroke-miterlimit="10"/>
<path d="M92.9009 53L92.2002 53.4522L91.8255 53.7069C91.6672 53.8042 91.5145 53.9108 91.3684 54.0261C91.0461 54.2731 90.6713 54.5392 90.2629 54.8584C89.2739 55.6649 88.347 56.5466 87.49 57.4958C86.3581 58.7617 85.3538 60.1392 84.4923 61.6078C82.2631 65.5435 80.9052 69.9241 80.5129 74.4455C80.4829 74.7685 80.4567 75.0953 80.4267 75.4222C80.3967 75.749 80.3967 76.0834 80.3743 76.4179C80.3293 77.0829 80.3368 77.7632 80.3255 78.4473C80.3338 79.8545 80.4189 81.2603 80.5804 82.6581C80.7433 84.1173 80.986 85.5662 81.3073 86.9981C81.6343 88.4815 82.0574 89.9415 82.5738 91.3685C83.0937 92.8325 83.707 94.2607 84.4099 95.6439C84.8146 96.3736 85.2218 97.1108 85.6315 97.8557L85.9612 98.4524C86.0699 98.6348 86.1786 98.7906 86.2872 98.9616L86.9392 99.9649C87.1641 100.303 87.3589 100.638 87.6062 100.983L88.3557 102.025L89.1051 103.077C89.3636 103.427 89.6446 103.765 89.9107 104.107C90.4578 104.791 90.9786 105.494 91.5819 106.16L92.4587 107.17L92.9009 107.68L93.3693 108.174C93.9988 108.831 94.6058 109.508 95.2428 110.157C95.8798 110.807 96.5506 111.472 97.2288 112.122L99.316 114.06L101.493 115.961C104.463 118.479 107.608 120.99 110.928 123.493C114.248 125.994 117.699 128.521 121.218 131.189L123.89 133.252L126.558 135.365C127.449 136.084 128.326 136.828 129.218 137.562L131.841 139.842L134.464 142.225C135.318 143.057 136.184 143.886 137.038 144.729C137.893 145.573 138.728 146.459 139.556 147.355L140.785 148.727C141.19 149.191 141.61 149.636 141.996 150.126C145.307 153.997 148.173 158.238 150.539 162.766L151.427 164.514L152.214 166.323L152.589 167.235C152.713 167.539 152.851 167.836 152.964 168.155L153.616 170.032L153.938 170.975L154.017 171.21L154.054 171.324C154.024 171.218 154.144 171.613 154.14 171.606L154.256 172.016L154.485 172.837L154.594 173.247L154.721 173.779L154.968 174.855L155.088 175.391C155.129 175.569 155.152 175.725 155.186 175.896C155.302 176.561 155.433 177.226 155.523 177.895C155.905 180.537 156.058 183.207 155.98 185.876C155.894 188.502 155.596 191.117 155.088 193.693C153.125 203.642 148.066 212.69 140.654 219.505C138.895 221.105 137.004 222.551 135.004 223.826C134.022 224.457 133.01 225.035 132.006 225.578L130.372 226.399L128.963 227C126.875 227.876 124.713 228.561 122.503 229.044C121.439 229.295 120.371 229.462 119.314 229.622L117.729 229.804C117.201 229.854 116.676 229.888 116.156 229.926C114.105 230.046 112.05 230.02 110.003 229.85C108.039 229.67 106.089 229.359 104.165 228.919C100.546 228.076 97.0564 226.743 93.789 224.955L92.6311 224.301L91.507 223.602C91.3271 223.484 91.1323 223.374 90.9599 223.253L90.4278 222.873C90.0793 222.622 89.7234 222.39 89.3861 222.131C88.7116 221.607 88.0409 221.105 87.4226 220.547C86.8043 219.988 86.201 219.441 85.6165 218.882C83.4403 216.74 81.5687 214.301 80.0558 211.635C79.8759 211.323 79.7222 211 79.5574 210.689L79.3138 210.221L79.1976 209.989L79.1677 209.932C79.1526 209.906 79.1388 209.88 79.1265 209.852L79.074 209.738C78.8042 209.119 78.5194 208.549 78.2796 207.899C78.156 207.584 78.0361 207.272 77.9049 206.964C77.7738 206.656 77.6988 206.349 77.5939 206.044C77.3803 205.44 77.2192 204.832 77.0506 204.239C76.4646 202.073 76.1017 199.85 75.9676 197.608C75.7829 194.487 76.0967 191.357 76.8969 188.339C77.1083 187.552 77.3584 186.777 77.6463 186.017C77.8374 185.5 77.9386 185.234 77.9386 185.234L77.695 186.032C77.5227 186.556 77.3204 187.351 77.103 188.392C76.5364 191.399 76.4567 194.48 76.8669 197.513C77.1535 199.657 77.6764 201.761 78.4258 203.787C78.6356 204.334 78.8342 204.901 79.089 205.452C79.2126 205.729 79.3325 206.01 79.4637 206.295L79.8722 207.12C80.127 207.667 80.4829 208.26 80.8014 208.834L80.8614 208.944L80.8801 208.978L80.9138 209.028L81.045 209.233L81.3073 209.651C81.4871 209.925 81.6558 210.21 81.8469 210.483C83.4491 212.809 85.3637 214.897 87.5351 216.686C88.1196 217.142 88.6966 217.613 89.3261 218.035C89.9556 218.457 90.5889 218.878 91.2372 219.293C91.5632 219.498 91.9116 219.673 92.2451 219.87L92.7548 220.159C92.9272 220.254 93.107 220.338 93.2831 220.425L94.3436 220.953L95.4377 221.44C98.4974 222.738 101.719 223.603 105.012 224.009C106.726 224.215 108.452 224.306 110.179 224.282C111.939 224.233 113.692 224.05 115.425 223.735C118.924 223.104 122.28 221.83 125.329 219.977L126.621 219.148C126.734 219.084 126.558 219.175 126.599 219.148L126.67 219.099L126.805 218.996L127.082 218.795L127.629 218.388C128.349 217.826 129.061 217.248 129.728 216.625C131.079 215.37 132.323 214.001 133.445 212.532C134.581 211.049 135.595 209.474 136.476 207.823C137.358 206.154 138.119 204.423 138.755 202.643C140.025 199.069 140.821 195.34 141.123 191.554C141.436 187.819 141.245 184.059 140.557 180.377C140.478 179.921 140.362 179.476 140.272 179.028C140.25 178.918 140.227 178.792 140.201 178.697L140.126 178.404L139.976 177.823L139.905 177.527L139.785 177.116L139.545 176.299L139.425 175.889C139.425 175.816 139.5 176.143 139.444 175.965L139.414 175.881L139.354 175.714L139.114 175.045C138.953 174.6 138.803 174.152 138.65 173.703C138.496 173.255 138.275 172.822 138.106 172.377L137.567 171.051L136.93 169.747C135.17 166.175 133.034 162.806 130.56 159.699C130.264 159.289 129.919 158.901 129.597 158.506L128.615 157.32C127.952 156.533 127.247 155.766 126.569 154.987L124.422 152.706L122.196 150.468L119.906 148.275L117.561 146.117L115.181 143.985L112.779 141.887L107.863 137.665C106.214 136.255 104.592 134.826 102.969 133.393C99.7394 130.516 96.5506 127.609 93.5791 124.527L91.3796 122.201L89.2587 119.826C88.5692 119.024 87.8985 118.203 87.2278 117.401C86.8868 117.021 86.5757 116.573 86.2572 116.158L85.3092 114.908L84.8408 114.288L84.3912 113.646L83.5069 112.365C82.9036 111.533 82.3827 110.64 81.8244 109.777C81.5583 109.344 81.2811 108.919 81.0225 108.478L80.2731 107.148L79.5424 105.825C79.3026 105.384 79.0815 104.89 78.8566 104.43C78.6318 103.97 78.4108 103.495 78.1897 103.032C78.081 102.8 77.9649 102.564 77.8674 102.344L77.6126 101.709C77.2554 100.82 76.9019 99.9332 76.5522 99.049C75.8826 97.2314 75.349 95.3652 74.9559 93.4663C73.5461 86.8456 73.6976 79.9808 75.3981 73.4308C76.9194 67.6732 79.5462 63.0938 82.3153 59.9699C83.5314 58.5781 84.8962 57.3277 86.3847 56.2417C87.4661 55.4495 88.6132 54.754 89.8132 54.1629C90.3041 53.9311 90.7463 53.7449 91.121 53.5853C91.2905 53.5065 91.4644 53.438 91.6419 53.38L92.0803 53.228L92.9009 53Z" fill="url(#paint0_linear_1397_27)"/>
<path d="M119.479 190.095L119.693 188.78C119.895 187.505 120.023 186.22 120.073 184.931C120.073 184.507 120.073 184.057 120.096 183.585C120.096 183.349 120.096 183.109 120.096 182.858C120.096 182.607 120.07 182.36 120.054 182.109C120.024 181.591 119.993 181.048 119.963 180.482C119.933 179.916 119.822 179.335 119.75 178.724C119.363 175.949 118.659 173.226 117.651 170.606C116.409 167.373 114.703 164.332 112.586 161.574C112.293 161.199 112.018 160.824 111.702 160.449L110.735 159.359L110.247 158.804L109.714 158.283L108.636 157.223C108.256 156.881 107.875 156.559 107.475 156.222L106.881 155.716L106.732 155.592L106.591 155.484L106.268 155.244L104.988 154.243C104.546 153.921 104.1 153.647 103.651 153.343C103.426 153.194 103.202 153.044 102.973 152.897C102.745 152.751 102.501 152.616 102.265 152.478C101.785 152.204 101.309 151.908 100.817 151.646L99.2941 150.896C99.0465 150.761 98.7837 150.652 98.5324 150.54L97.744 150.199C95.5789 149.284 93.3184 148.605 91.0029 148.175C86.0528 147.278 80.9507 147.666 76.1992 149.299C71.0712 151.088 66.426 154.006 62.6179 157.83C60.5938 159.823 58.7676 162.001 57.1641 164.336C56.7489 164.921 56.3757 165.543 55.9796 166.146C55.5835 166.75 55.2179 167.394 54.8637 168.02C54.5096 168.646 54.1782 169.309 53.8278 169.954L53.7631 170.074C53.7136 170.172 53.763 170.074 53.7326 170.142L53.6069 170.404L53.3555 170.929L52.8528 171.989C50.4013 177.482 48.9251 183.347 48.4883 189.331C48.0527 195.533 48.6968 201.763 50.3925 207.752C52.1206 213.845 54.9007 219.601 58.6113 224.767C60.4653 227.344 62.5519 229.751 64.8459 231.959C65.4134 232.514 66.0189 233.031 66.6016 233.571C66.8987 233.837 67.2148 234.084 67.5157 234.339L67.9765 234.714L68.205 234.905L68.3193 234.999L70.4597 236.64C70.5473 236.708 70.6387 236.783 70.7225 236.843L70.9586 237.004L71.4309 237.323L72.3678 237.963C72.5277 238.068 72.6724 238.177 72.84 238.286L73.3542 238.604L74.3825 239.245C75.0566 239.687 75.7764 240.058 76.4772 240.46C76.8314 240.651 77.1741 240.864 77.5397 241.044L78.6252 241.588L79.7068 242.131L80.8189 242.63C83.7728 243.967 86.829 245.073 89.9594 245.939C96.2628 247.663 102.794 248.443 109.333 248.255C115.832 248.065 122.279 247.058 128.517 245.257C134.693 243.508 140.595 240.933 146.059 237.604L147.068 236.974L147.32 236.817L147.445 236.738C147.301 236.847 147.514 236.693 147.445 236.738L148.001 236.363L149.106 235.613L149.959 234.988L150.386 234.677L150.839 234.302L151.745 233.586L152.621 232.836C152.918 232.585 153.212 232.338 153.49 232.087L154.343 231.307C154.624 231.045 154.891 230.767 155.165 230.498C155.725 229.969 156.239 229.392 156.773 228.837C157.805 227.694 158.814 226.525 159.735 225.296C160.657 224.066 161.541 222.799 162.379 221.506C162.76 220.847 163.197 220.202 163.567 219.528L164.134 218.523L164.668 217.5C166.079 214.775 167.257 211.939 168.191 209.022C169.125 206.128 169.827 203.165 170.289 200.162C170.756 197.195 170.981 194.196 170.963 191.193C170.963 190.819 170.963 190.444 170.963 190.069C170.963 189.694 170.936 189.32 170.921 188.945C170.921 188.195 170.834 187.468 170.788 186.73V186.452C170.769 186.306 170.788 186.497 170.788 186.422V186.272L170.723 185.669L170.586 184.47L170.552 184.174L170.514 183.919L170.438 183.409L170.289 182.39C169.809 179.548 169.095 176.749 168.156 174.021C166.289 168.659 163.729 163.557 160.539 158.838C157.491 154.31 154.041 150.057 150.229 146.129C146.677 142.446 142.898 138.982 138.914 135.755C137.01 134.207 135.106 132.756 133.232 131.358C132.314 130.691 131.328 130.005 130.406 129.338L127.626 127.337C120.336 122.045 114.208 117.049 109.726 112.345C107.49 109.984 105.647 107.702 104.394 105.475C103.792 104.45 103.324 103.355 103 102.215C102.859 101.712 102.764 101.198 102.718 100.678C102.68 100.207 102.693 99.7335 102.756 99.2651C102.862 98.488 103.137 97.7427 103.563 97.0801C103.73 96.8231 103.916 96.5788 104.12 96.3493C104.31 96.1431 104.5 95.9744 104.653 95.8133L105.11 95.4385C105.243 95.3336 105.365 95.2586 105.456 95.1949L105.734 95L105.479 95.2211C105.395 95.2961 105.285 95.3823 105.163 95.4985L104.756 95.9107C104.615 96.0794 104.455 96.263 104.295 96.4804C104.126 96.7197 103.975 96.9701 103.841 97.23C103.517 97.8769 103.338 98.5851 103.316 99.3063C103.306 99.7347 103.341 100.163 103.419 100.584C103.515 101.05 103.653 101.506 103.83 101.949C104.243 102.97 104.785 103.936 105.445 104.823C107.118 107.046 109.051 109.068 111.203 110.846C115.995 114.969 122.42 119.26 130.063 123.769L132.992 125.478C133.99 126.059 134.991 126.628 136.058 127.266C138.13 128.529 140.221 129.855 142.346 131.283C146.829 134.291 151.121 137.566 155.196 141.092C159.688 144.979 163.817 149.255 167.532 153.868C171.62 158.926 175.023 164.486 177.655 170.408C179.04 173.561 180.162 176.82 181.01 180.152C181.113 180.598 181.216 181.044 181.322 181.494L181.475 182.165L181.551 182.502L181.612 182.802C181.692 183.199 181.768 183.593 181.844 183.99L181.962 184.586L181.989 184.732C181.989 184.758 182.038 185.051 182.034 185.002L182.084 185.328C182.214 186.201 182.366 187.071 182.465 187.952C182.518 188.394 182.572 188.832 182.621 189.275C182.671 189.717 182.701 190.159 182.743 190.605C183.058 194.208 183.084 197.83 182.819 201.436C182.29 208.939 180.521 216.307 177.582 223.249L177.011 224.58L176.394 225.895C175.994 226.78 175.53 227.634 175.092 228.519C174.162 230.235 173.187 231.944 172.098 233.597C171.009 235.25 169.859 236.873 168.628 238.469C167.996 239.245 167.379 240.036 166.724 240.789C166.393 241.164 166.069 241.539 165.726 241.914L164.69 243.038C164.348 243.413 163.99 243.788 163.628 244.129L162.542 245.204L161.419 246.243L160.851 246.763L160.234 247.296L158.985 248.356L157.926 249.207L157.401 249.631C157.466 249.586 157.165 249.811 157.138 249.829L156.986 249.938L156.681 250.163L155.455 251.055C148.841 255.835 141.459 259.49 133.617 261.867C125.718 264.202 117.484 265.244 109.242 264.952C101.036 264.703 92.9226 263.176 85.2025 260.428C81.3743 259.058 77.6675 257.38 74.1197 255.41L72.7981 254.66L71.507 253.866L70.2235 253.071C69.797 252.809 69.3895 252.509 68.9705 252.232C68.1441 251.658 67.3024 251.107 66.5102 250.496L65.3105 249.593L64.7126 249.14C64.5146 248.986 64.3089 248.81 64.1071 248.649L62.8997 247.648L62.298 247.146L62.0009 246.895L61.7457 246.662L59.7691 244.837C59.6792 244.765 59.5951 244.686 59.5178 244.601L59.3845 244.47L59.1331 244.192L58.6075 243.664C58.2571 243.289 57.8991 242.963 57.5602 242.596C56.8975 241.846 56.212 241.142 55.5759 240.388C53.0302 237.419 50.7625 234.229 48.8005 230.857C41.3235 218.015 38.4907 203.058 40.7645 188.428C41.3025 185.023 42.1267 181.668 43.2287 178.398C44.312 175.208 45.6703 172.115 47.2886 169.152L47.8675 168.133L48.1531 167.627L48.2978 167.372C48.3313 167.306 48.3681 167.243 48.4083 167.181L48.4883 167.05C48.9262 166.356 49.3452 165.655 49.7946 164.977C50.244 164.299 50.701 163.624 51.1809 162.976C51.6608 162.327 52.1368 161.671 52.6472 161.049C54.6178 158.567 56.8254 156.277 59.2397 154.209C63.989 150.154 69.439 147.159 75.0909 145.649C77.8501 144.902 80.6956 144.507 83.5572 144.476C86.2736 144.45 88.9825 144.761 91.6199 145.402C94.0972 146.009 96.4995 146.881 98.7838 148.003L99.6064 148.419C99.8768 148.554 100.151 148.685 100.41 148.842L101.964 149.745C102.467 150.057 102.95 150.394 103.438 150.712C103.682 150.874 103.925 151.027 104.161 151.196L104.858 151.717C105.315 152.065 105.795 152.399 106.222 152.751C106.648 153.104 107.06 153.452 107.475 153.797L107.787 154.056L107.958 154.202L108.107 154.34L108.705 154.906C109.086 155.281 109.497 155.656 109.87 156.031L110.937 157.196L111.462 157.773L111.942 158.373L112.887 159.561C113.195 159.936 113.458 160.378 113.74 160.776C115.768 163.722 117.366 166.934 118.489 170.318C119.382 173.029 119.97 175.827 120.245 178.664C120.291 179.283 120.34 179.875 120.382 180.448C120.424 181.022 120.382 181.573 120.382 182.094C120.382 182.356 120.382 182.611 120.382 182.862C120.382 183.113 120.351 183.353 120.34 183.593C120.313 184.065 120.291 184.515 120.268 184.942C120.163 186.233 119.982 187.517 119.727 188.787C119.567 189.649 119.479 190.095 119.479 190.095Z" fill="url(#paint1_linear_1397_27)"/>
<defs>
<linearGradient id="paint0_linear_1397_27" x1="144.5" y1="87.5" x2="119.844" y2="155.655" gradientUnits="userSpaceOnUse">
<stop offset="0.00961538" stop-color="#DA8931"/>
<stop offset="0.414679" stop-color="#EFC356"/>
<stop offset="1" stop-color="#F1FFEB"/>
</linearGradient>
<linearGradient id="paint1_linear_1397_27" x1="169.355" y1="95" x2="151.369" y2="212.275" gradientUnits="userSpaceOnUse">
<stop stop-color="#DB8C32"/>
<stop offset="0.219041" stop-color="#EBB94F"/>
<stop offset="1" stop-color="#F2FFEB"/>
</linearGradient>
</defs>
</svg>
