<svg width="315" height="315" viewBox="0 0 315 315" fill="none" xmlns="http://www.w3.org/2000/svg">
<circle cx="157.5" cy="157.5" r="157.5" fill="#436D2F"/>
<path d="M138.901 49L138.2 49.4522L137.826 49.7069C137.667 49.8042 137.515 49.9108 137.368 50.0261C137.046 50.2731 136.671 50.5392 136.263 50.8584C135.274 51.6649 134.347 52.5466 133.49 53.4958C132.358 54.7617 131.354 56.1392 130.492 57.6078C128.263 61.5435 126.905 65.9241 126.513 70.4455C126.483 70.7685 126.457 71.0953 126.427 71.4222C126.397 71.749 126.397 72.0834 126.374 72.4179C126.329 73.0829 126.337 73.7632 126.326 74.4473C126.334 75.8545 126.419 77.2603 126.58 78.6581C126.743 80.1173 126.986 81.5662 127.307 82.9981C127.634 84.4815 128.057 85.9415 128.574 87.3685C129.094 88.8325 129.707 90.2607 130.41 91.6439C130.815 92.3736 131.222 93.1108 131.631 93.8557L131.961 94.4524C132.07 94.6348 132.179 94.7906 132.287 94.9616L132.939 95.9649C133.164 96.3031 133.359 96.6376 133.606 96.9834L134.356 98.0247L135.105 99.0774C135.364 99.427 135.645 99.7653 135.911 100.107C136.458 100.791 136.979 101.494 137.582 102.16L138.459 103.17L138.901 103.68L139.369 104.174C139.999 104.831 140.606 105.508 141.243 106.157C141.88 106.807 142.551 107.472 143.229 108.122L145.316 110.06L147.493 111.961C150.463 114.479 153.608 116.99 156.928 119.493C160.248 121.994 163.699 124.521 167.218 127.189L169.89 129.252L172.558 131.365C173.449 132.084 174.326 132.828 175.218 133.562L177.841 135.842L180.464 138.225C181.318 139.057 182.184 139.886 183.038 140.729C183.893 141.573 184.728 142.459 185.556 143.355L186.785 144.727C187.19 145.191 187.61 145.636 187.996 146.126C191.307 149.997 194.173 154.238 196.539 158.766L197.427 160.514L198.214 162.323L198.589 163.235C198.713 163.539 198.851 163.836 198.964 164.155L199.616 166.032L199.938 166.975L200.017 167.21L200.054 167.324C200.024 167.218 200.144 167.613 200.14 167.606L200.256 168.016L200.485 168.837L200.594 169.247L200.721 169.779L200.968 170.855L201.088 171.391C201.129 171.569 201.152 171.725 201.186 171.896C201.302 172.561 201.433 173.226 201.523 173.895C201.905 176.537 202.058 179.207 201.98 181.876C201.894 184.502 201.596 187.117 201.088 189.693C199.125 199.642 194.066 208.69 186.654 215.505C184.895 217.105 183.004 218.551 181.004 219.826C180.022 220.457 179.01 221.035 178.006 221.578L176.372 222.399L174.963 223C172.875 223.876 170.713 224.561 168.503 225.044C167.439 225.295 166.371 225.462 165.314 225.622L163.729 225.804C163.201 225.854 162.676 225.888 162.156 225.926C160.105 226.046 158.05 226.02 156.003 225.85C154.039 225.67 152.089 225.359 150.165 224.919C146.546 224.076 143.056 222.743 139.789 220.955L138.631 220.301L137.507 219.602C137.327 219.484 137.132 219.374 136.96 219.253L136.428 218.873C136.079 218.622 135.723 218.39 135.386 218.131C134.712 217.607 134.041 217.105 133.423 216.547C132.804 215.988 132.201 215.441 131.616 214.882C129.44 212.74 127.569 210.301 126.056 207.635C125.876 207.323 125.722 207 125.557 206.689L125.314 206.221L125.198 205.989L125.168 205.932C125.153 205.906 125.139 205.88 125.126 205.852L125.074 205.738C124.804 205.119 124.519 204.549 124.28 203.899C124.156 203.584 124.036 203.272 123.905 202.964C123.774 202.656 123.699 202.349 123.594 202.044C123.38 201.44 123.219 200.832 123.051 200.239C122.465 198.073 122.102 195.85 121.968 193.608C121.783 190.487 122.097 187.357 122.897 184.339C123.108 183.552 123.358 182.777 123.646 182.017C123.837 181.5 123.939 181.234 123.939 181.234L123.695 182.032C123.523 182.556 123.32 183.351 123.103 184.392C122.536 187.399 122.457 190.48 122.867 193.513C123.153 195.657 123.676 197.761 124.426 199.787C124.636 200.334 124.834 200.901 125.089 201.452C125.213 201.729 125.333 202.01 125.464 202.295L125.872 203.12C126.127 203.667 126.483 204.26 126.801 204.834L126.861 204.944L126.88 204.978L126.914 205.028L127.045 205.233L127.307 205.651C127.487 205.925 127.656 206.21 127.847 206.483C129.449 208.809 131.364 210.897 133.535 212.686C134.12 213.142 134.697 213.613 135.326 214.035C135.956 214.457 136.589 214.878 137.237 215.293C137.563 215.498 137.912 215.673 138.245 215.87L138.755 216.159C138.927 216.254 139.107 216.338 139.283 216.425L140.344 216.953L141.438 217.44C144.497 218.738 147.719 219.603 151.012 220.009C152.726 220.215 154.452 220.306 156.179 220.282C157.939 220.233 159.692 220.05 161.425 219.735C164.924 219.104 168.28 217.83 171.329 215.977L172.621 215.148C172.734 215.084 172.558 215.175 172.599 215.148L172.67 215.099L172.805 214.996L173.082 214.795L173.629 214.388C174.349 213.826 175.061 213.248 175.728 212.625C177.079 211.37 178.323 210.001 179.445 208.532C180.581 207.049 181.595 205.474 182.476 203.823C183.358 202.154 184.119 200.423 184.755 198.643C186.025 195.069 186.821 191.34 187.123 187.554C187.436 183.819 187.245 180.059 186.557 176.377C186.478 175.921 186.362 175.476 186.272 175.028C186.25 174.918 186.227 174.792 186.201 174.697L186.126 174.404L185.976 173.823L185.905 173.527L185.785 173.116L185.545 172.299L185.425 171.889C185.425 171.816 185.5 172.143 185.444 171.965L185.414 171.881L185.354 171.714L185.114 171.045C184.953 170.6 184.803 170.152 184.65 169.703C184.496 169.255 184.275 168.822 184.106 168.377L183.567 167.051L182.93 165.747C181.17 162.175 179.034 158.806 176.56 155.699C176.264 155.289 175.919 154.901 175.597 154.506L174.615 153.32C173.952 152.533 173.247 151.766 172.569 150.987L170.422 148.706L168.196 146.468L165.906 144.275L163.561 142.117L161.181 139.985L158.779 137.887L153.863 133.665C152.214 132.255 150.592 130.826 148.969 129.393C145.739 126.516 142.551 123.609 139.579 120.527L137.38 118.201L135.259 115.826C134.569 115.024 133.899 114.203 133.228 113.401C132.887 113.021 132.576 112.573 132.257 112.158L131.309 110.908L130.841 110.288L130.391 109.646L129.507 108.365C128.904 107.533 128.383 106.64 127.824 105.777C127.558 105.344 127.281 104.919 127.022 104.478L126.273 103.148L125.542 101.825C125.303 101.384 125.081 100.89 124.857 100.43C124.632 99.9705 124.411 99.4954 124.19 99.0318C124.081 98.8 123.965 98.5644 123.867 98.3439L123.613 97.7093C123.255 96.82 122.902 95.9332 122.552 95.049C121.883 93.2314 121.349 91.3652 120.956 89.4663C119.546 82.8456 119.698 75.9808 121.398 69.4308C122.919 63.6732 125.546 59.0938 128.315 55.9699C129.531 54.5781 130.896 53.3277 132.385 52.2417C133.466 51.4495 134.613 50.754 135.813 50.1629C136.304 49.9311 136.746 49.7449 137.121 49.5853C137.29 49.5065 137.464 49.438 137.642 49.38L138.08 49.228L138.901 49Z" fill="url(#paint0_linear_1397_7)"/>
<path d="M165.479 186.095L165.693 184.78C165.895 183.505 166.023 182.22 166.073 180.931C166.073 180.507 166.073 180.057 166.096 179.585C166.096 179.349 166.096 179.109 166.096 178.858C166.096 178.607 166.07 178.36 166.054 178.109C166.024 177.591 165.993 177.048 165.963 176.482C165.933 175.916 165.822 175.335 165.75 174.724C165.363 171.949 164.659 169.226 163.651 166.606C162.409 163.373 160.703 160.332 158.586 157.574C158.293 157.199 158.018 156.824 157.702 156.449L156.735 155.359L156.247 154.804L155.714 154.283L154.636 153.223C154.256 152.881 153.875 152.559 153.475 152.222L152.881 151.716L152.732 151.592L152.591 151.484L152.268 151.244L150.988 150.243C150.546 149.921 150.1 149.647 149.651 149.343C149.426 149.194 149.202 149.044 148.973 148.897C148.745 148.751 148.501 148.616 148.265 148.478C147.785 148.204 147.309 147.908 146.817 147.646L145.294 146.896C145.047 146.761 144.784 146.652 144.532 146.54L143.744 146.199C141.579 145.284 139.318 144.605 137.003 144.175C132.053 143.278 126.951 143.666 122.199 145.299C117.071 147.088 112.426 150.006 108.618 153.83C106.594 155.823 104.768 158.001 103.164 160.336C102.749 160.921 102.376 161.543 101.98 162.146C101.584 162.75 101.218 163.394 100.864 164.02C100.51 164.646 100.178 165.309 99.8278 165.954L99.7631 166.074C99.7136 166.172 99.763 166.074 99.7326 166.142L99.6069 166.404L99.3555 166.929L98.8528 167.989C96.4013 173.482 94.9251 179.347 94.4883 185.331C94.0527 191.533 94.6968 197.763 96.3925 203.752C98.1206 209.845 100.901 215.601 104.611 220.767C106.465 223.344 108.552 225.751 110.846 227.959C111.413 228.514 112.019 229.031 112.602 229.571C112.899 229.837 113.215 230.084 113.516 230.339L113.977 230.714L114.205 230.905L114.319 230.999L116.46 232.64C116.547 232.708 116.639 232.783 116.722 232.843L116.959 233.004L117.431 233.323L118.368 233.963C118.528 234.068 118.672 234.177 118.84 234.286L119.354 234.604L120.382 235.245C121.057 235.687 121.776 236.058 122.477 236.46C122.831 236.651 123.174 236.864 123.54 237.044L124.625 237.588L125.707 238.131L126.819 238.63C129.773 239.967 132.829 241.073 135.959 241.939C142.263 243.663 148.794 244.443 155.333 244.255C161.832 244.065 168.279 243.058 174.517 241.257C180.693 239.508 186.595 236.933 192.059 233.604L193.068 232.974L193.32 232.817L193.445 232.738C193.301 232.847 193.514 232.693 193.445 232.738L194.001 232.363L195.106 231.613L195.959 230.988L196.386 230.677L196.839 230.302L197.745 229.586L198.621 228.836C198.918 228.585 199.212 228.338 199.49 228.087L200.343 227.307C200.624 227.045 200.891 226.767 201.165 226.498C201.725 225.969 202.239 225.392 202.773 224.837C203.805 223.694 204.814 222.525 205.735 221.296C206.657 220.066 207.541 218.799 208.379 217.506C208.76 216.847 209.197 216.202 209.567 215.528L210.134 214.523L210.668 213.5C212.079 210.775 213.257 207.939 214.191 205.022C215.125 202.128 215.827 199.165 216.289 196.162C216.756 193.195 216.981 190.196 216.963 187.193C216.963 186.819 216.963 186.444 216.963 186.069C216.963 185.694 216.936 185.32 216.921 184.945C216.921 184.195 216.834 183.468 216.788 182.73V182.452C216.769 182.306 216.788 182.497 216.788 182.422V182.272L216.723 181.669L216.586 180.47L216.552 180.174L216.514 179.919L216.438 179.409L216.289 178.39C215.809 175.548 215.095 172.749 214.156 170.021C212.289 164.659 209.729 159.557 206.539 154.838C203.491 150.31 200.041 146.057 196.229 142.129C192.677 138.446 188.898 134.982 184.914 131.755C183.01 130.207 181.106 128.756 179.232 127.358C178.314 126.691 177.328 126.005 176.406 125.338L173.626 123.337C166.336 118.045 160.208 113.049 155.726 108.345C153.49 105.984 151.647 103.702 150.394 101.475C149.792 100.45 149.324 99.3547 149 98.2147C148.859 97.712 148.764 97.1976 148.718 96.6781C148.68 96.2071 148.693 95.7335 148.756 95.2651C148.862 94.488 149.137 93.7427 149.563 93.0801C149.73 92.8231 149.916 92.5788 150.12 92.3493C150.31 92.1431 150.5 91.9744 150.653 91.8133L151.11 91.4385C151.243 91.3336 151.365 91.2586 151.456 91.1949L151.734 91L151.479 91.2211C151.395 91.2961 151.285 91.3823 151.163 91.4985L150.756 91.9107C150.615 92.0794 150.455 92.263 150.295 92.4804C150.126 92.7197 149.975 92.9701 149.841 93.23C149.517 93.8769 149.338 94.5851 149.316 95.3063C149.306 95.7347 149.341 96.1628 149.419 96.5844C149.515 97.05 149.653 97.5064 149.83 97.9486C150.243 98.9701 150.785 99.936 151.445 100.823C153.118 103.046 155.051 105.068 157.203 106.846C161.995 110.969 168.42 115.26 176.063 119.769L178.992 121.478C179.99 122.059 180.991 122.628 182.058 123.266C184.13 124.529 186.221 125.855 188.346 127.283C192.829 130.291 197.121 133.566 201.196 137.092C205.688 140.979 209.817 145.255 213.532 149.868C217.62 154.926 221.023 160.486 223.655 166.408C225.04 169.561 226.162 172.82 227.01 176.152C227.113 176.598 227.216 177.044 227.322 177.494L227.475 178.165L227.551 178.502L227.612 178.802C227.692 179.199 227.768 179.593 227.844 179.99L227.962 180.586L227.989 180.732C227.989 180.758 228.038 181.051 228.034 181.002L228.084 181.328C228.214 182.201 228.366 183.071 228.465 183.952C228.518 184.394 228.572 184.832 228.621 185.275C228.671 185.717 228.701 186.159 228.743 186.605C229.058 190.208 229.084 193.83 228.819 197.436C228.29 204.939 226.521 212.307 223.582 219.249L223.011 220.58L222.394 221.895C221.994 222.78 221.53 223.634 221.092 224.519C220.162 226.235 219.187 227.944 218.098 229.597C217.009 231.25 215.859 232.873 214.628 234.469C213.996 235.245 213.379 236.036 212.724 236.789C212.393 237.164 212.069 237.539 211.726 237.914L210.69 239.038C210.348 239.413 209.99 239.788 209.628 240.129L208.542 241.204L207.419 242.243L206.851 242.763L206.234 243.296L204.985 244.356L203.926 245.207L203.401 245.631C203.466 245.586 203.165 245.811 203.138 245.829L202.986 245.938L202.681 246.163L201.455 247.055C194.841 251.835 187.459 255.49 179.617 257.867C171.718 260.202 163.484 261.244 155.242 260.952C147.036 260.703 138.923 259.176 131.202 256.428C127.374 255.058 123.668 253.38 120.12 251.41L118.798 250.66L117.507 249.866L116.224 249.071C115.797 248.809 115.389 248.509 114.971 248.232C114.144 247.658 113.302 247.107 112.51 246.496L111.311 245.593L110.713 245.14C110.515 244.986 110.309 244.81 110.107 244.649L108.9 243.648L108.298 243.146L108.001 242.895L107.746 242.662L105.769 240.837C105.679 240.765 105.595 240.686 105.518 240.601L105.384 240.47L105.133 240.192L104.608 239.664C104.257 239.289 103.899 238.963 103.56 238.596C102.897 237.846 102.212 237.142 101.576 236.388C99.0302 233.419 96.7625 230.229 94.8005 226.857C87.3235 214.015 84.4907 199.058 86.7645 184.428C87.3025 181.023 88.1267 177.668 89.2287 174.398C90.312 171.208 91.6703 168.115 93.2886 165.152L93.8675 164.133L94.1531 163.627L94.2978 163.372C94.3313 163.306 94.3681 163.243 94.4083 163.181L94.4883 163.05C94.9262 162.356 95.3452 161.655 95.7946 160.977C96.244 160.299 96.701 159.624 97.1809 158.976C97.6608 158.327 98.1368 157.671 98.6472 157.049C100.618 154.567 102.825 152.277 105.24 150.209C109.989 146.154 115.439 143.159 121.091 141.649C123.85 140.902 126.696 140.507 129.557 140.476C132.274 140.45 134.983 140.761 137.62 141.402C140.097 142.009 142.499 142.881 144.784 144.003L145.606 144.419C145.877 144.554 146.151 144.685 146.41 144.842L147.964 145.745C148.467 146.057 148.95 146.394 149.438 146.712C149.682 146.874 149.925 147.027 150.161 147.196L150.858 147.717C151.315 148.065 151.795 148.399 152.222 148.751C152.648 149.104 153.06 149.452 153.475 149.797L153.787 150.056L153.958 150.202L154.107 150.34L154.705 150.906C155.086 151.281 155.497 151.656 155.87 152.031L156.937 153.196L157.462 153.773L157.942 154.373L158.887 155.561C159.195 155.936 159.458 156.378 159.74 156.776C161.768 159.722 163.366 162.934 164.489 166.318C165.382 169.029 165.97 171.827 166.245 174.664C166.291 175.283 166.34 175.875 166.382 176.448C166.424 177.022 166.382 177.573 166.382 178.094C166.382 178.356 166.382 178.611 166.382 178.862C166.382 179.113 166.351 179.353 166.34 179.593C166.313 180.065 166.291 180.515 166.268 180.942C166.163 182.233 165.982 183.517 165.727 184.787C165.567 185.649 165.479 186.095 165.479 186.095Z" fill="url(#paint1_linear_1397_7)"/>
<defs>
<linearGradient id="paint0_linear_1397_7" x1="190.5" y1="83.5" x2="165.844" y2="151.655" gradientUnits="userSpaceOnUse">
<stop offset="0.00961538" stop-color="#DA8931"/>
<stop offset="0.414679" stop-color="#EFC356"/>
<stop offset="1" stop-color="#F1FFEB"/>
</linearGradient>
<linearGradient id="paint1_linear_1397_7" x1="215.355" y1="91" x2="197.369" y2="208.275" gradientUnits="userSpaceOnUse">
<stop stop-color="#DB8C32"/>
<stop offset="0.219041" stop-color="#EBB94F"/>
<stop offset="1" stop-color="#F2FFEB"/>
</linearGradient>
</defs>
</svg>
